<?xml version="1.0" encoding="UTF-8" standalone="no"?>
<!-- Created with Inkscape (http://www.inkscape.org/) -->

<svg
   xmlns:dc="http://purl.org/dc/elements/1.1/"
   xmlns:cc="http://creativecommons.org/ns#"
   xmlns:rdf="http://www.w3.org/1999/02/22-rdf-syntax-ns#"
   xmlns:svg="http://www.w3.org/2000/svg"
   xmlns="http://www.w3.org/2000/svg"
   xmlns:sodipodi="http://sodipodi.sourceforge.net/DTD/sodipodi-0.dtd"
   xmlns:inkscape="http://www.inkscape.org/namespaces/inkscape"
   width="4689.3052mm"
   height="1087.6123mm"
   viewBox="0 0 4689.3053 1087.6123"
   version="1.1"
   id="svg5131"
   sodipodi:docname="softbutterfly - imagotipo - color.svg"
   inkscape:version="0.92.1 r">
  <defs
     id="defs5125" />
  <sodipodi:namedview
     id="base"
     pagecolor="#ffffff"
     bordercolor="#666666"
     borderopacity="1.0"
     inkscape:pageopacity="0.0"
     inkscape:pageshadow="2"
     inkscape:zoom="0.021875"
     inkscape:cx="3762.8208"
     inkscape:cy="-3658.6062"
     inkscape:document-units="mm"
     inkscape:current-layer="layer1"
     showgrid="false"
     inkscape:snap-intersection-paths="true"
     inkscape:snap-bbox="true"
     inkscape:bbox-paths="true"
     inkscape:bbox-nodes="true"
     inkscape:snap-bbox-edge-midpoints="true"
     inkscape:snap-bbox-midpoints="true"
     inkscape:object-paths="true"
     inkscape:snap-smooth-nodes="true"
     inkscape:snap-midpoints="true"
     inkscape:snap-object-midpoints="true"
     fit-margin-top="0"
     fit-margin-left="0"
     fit-margin-right="0"
     fit-margin-bottom="0"
     inkscape:window-width="1366"
     inkscape:window-height="680"
     inkscape:window-x="0"
     inkscape:window-y="27"
     inkscape:window-maximized="1" />
  <metadata
     id="metadata5128">
    <rdf:RDF>
      <cc:Work
         rdf:about="">
        <dc:format>image/svg+xml</dc:format>
        <dc:type
           rdf:resource="http://purl.org/dc/dcmitype/StillImage" />
        <dc:title></dc:title>
      </cc:Work>
    </rdf:RDF>
  </metadata>
  <g
     inkscape:label="Layer 1"
     inkscape:groupmode="layer"
     id="layer1"
     transform="translate(107.774,-148.90964)">
    <g
       id="g5082">
      <path
         inkscape:connector-curvature="0"
         style="color:#000000;font-style:normal;font-variant:normal;font-weight:normal;font-stretch:normal;font-size:medium;line-height:normal;font-family:sans-serif;font-variant-ligatures:normal;font-variant-position:normal;font-variant-caps:normal;font-variant-numeric:normal;font-variant-alternates:normal;font-feature-settings:normal;text-indent:0;text-align:start;text-decoration:none;text-decoration-line:none;text-decoration-style:solid;text-decoration-color:#000000;letter-spacing:normal;word-spacing:normal;text-transform:none;writing-mode:lr-tb;direction:ltr;text-orientation:mixed;dominant-baseline:auto;baseline-shift:baseline;text-anchor:start;white-space:normal;shape-padding:0;clip-rule:nonzero;display:inline;overflow:visible;visibility:visible;opacity:1;isolation:auto;mix-blend-mode:normal;color-interpolation:sRGB;color-interpolation-filters:linearRGB;solid-color:#000000;solid-opacity:1;vector-effect:none;fill:#c83737;fill-opacity:1;fill-rule:evenodd;stroke:#c83737;stroke-width:5.29166651;stroke-linecap:butt;stroke-linejoin:round;stroke-miterlimit:4;stroke-dasharray:none;stroke-dashoffset:0;stroke-opacity:1;paint-order:fill markers stroke;color-rendering:auto;image-rendering:auto;shape-rendering:auto;text-rendering:auto;enable-background:accumulate"
         d="m -87.41241,151.55893 a 5.003684,5.0089463 0 0 0 -0.505671,0.008 5.003684,5.0089463 0 0 0 -4.683168,4.68809 l -12.517741,193.15776 a 5.003684,5.0089463 0 0 0 1.35585,3.74164 l 89.104537,95.55175 57.231267,263.64769 a 5.003684,5.0089463 0 0 0 4.932326,3.93976 L 234.56005,714.21002 98.301475,921.5127 a 5.003684,5.0089463 0 0 0 -0.578993,4.2699 l 80.002068,252.408 0.0514,0.1762 a 5.003684,5.0089463 0 0 0 0.10994,0.2934 5.003684,5.0089463 0 0 0 3.51787,3.0887 l 222.59284,51.9944 a 5.003684,5.0089463 0 0 0 5.59923,-2.5825 L 551.16787,957.72613 546.7339,955.42977 544.13214,951.13053 321.16556,1086.696 550.20047,854.603 a 5.003684,5.0089463 0 0 0 0.0807,-0.0808 5.003684,5.0089463 0 0 0 0.26379,-0.28623 5.003684,5.0089463 0 0 0 0.03,-0.0439 5.003684,5.0089463 0 0 0 0.2713,-0.35197 5.003684,5.0089463 0 0 0 0.0225,-0.0301 5.003684,5.0089463 0 0 0 0.13208,-0.22012 5.003684,5.0089463 0 0 0 0.16135,-0.27872 5.003684,5.0089463 0 0 0 0.015,-0.0376 5.003684,5.0089463 0 0 0 0.19775,-0.41819 5.003684,5.0089463 0 0 0 0.03,-0.0879 5.003684,5.0089463 0 0 0 0.13209,-0.38149 5.003684,5.0089463 0 0 0 0.015,-0.0515 5.003684,5.0089463 0 0 0 0.10281,-0.44021 5.003684,5.0089463 0 0 0 0.015,-0.11006 5.003684,5.0089463 0 0 0 0.0514,-0.38149 5.003684,5.0089463 0 0 0 0,-0.03 5.003684,5.0089463 0 0 0 -0.23453,-1.95153 5.003684,5.0089463 0 0 0 -0.03,-0.0732 5.003684,5.0089463 0 0 0 -1.68564,-2.34034 5.003684,5.0089463 0 0 0 -0.066,-0.0439 5.003684,5.0089463 0 0 0 -0.78418,-0.47691 5.003684,5.0089463 0 0 0 -0.0807,-0.0376 l -0.26379,-0.12471 a 5.003684,5.0089463 0 0 0 -0.008,0 L 253.86725,708.24939 549.58032,500.97608 a 5.003684,5.0089463 0 0 0 0.007,-0.008 5.003684,5.0089463 0 0 0 0.13922,-8.09223 L 188.05405,219.44163 a 5.003684,5.0089463 0 0 0 -0.8575,-0.52089 5.003684,5.0089463 0 0 0 -0.46905,-0.19796 5.003684,5.0089463 0 0 0 -0.47636,-0.13936 5.003684,5.0089463 0 0 0 -0.0225,-0.03 L -86.420466,151.70234 a 5.003684,5.0089463 0 0 0 -0.989392,-0.14687 z m 6.830509,11.88526 250.193411,61.35592 -209.005065,92.5584 z m -4.008863,23.73387 35.933502,134.28162 -45.930126,20.34438 z M 187.86043,231.84324 529.73079,490.30396 125.33773,453.59166 Z M 166.3135,237.19895 -7.6594992,435.96919 -36.76981,327.16021 Z m 7.88587,6.23611 L 115.20189,452.67458 0.16775643,442.21996 Z m -220.232887,87.82632 25.929562,96.92367 -71.537208,-76.71872 z M -3.7385542,451.89691 112.43154,462.4616 48.11329,690.61487 Z m 131.0843742,11.9146 405.29453,36.81504 -286.84512,201.04456 z m -7.16762,8.04092 115.69373,232.3278 -181.778272,2.01756 z M 247.98655,716.53504 529.97263,848.66701 224.02845,899.14275 Z M 236.12108,730.08571 213.7167,900.84486 112.93725,917.46957 Z M 515.27089,861.25663 208.67443,1016.1467 222.66528,909.50937 Z m 6.43478,7.98954 -232.62605,235.69523 -78.1992,-78.6922 z M 212.35354,911.21144 198.8464,1014.1365 112.87128,927.61606 Z m -98.88127,31.19519 83.72515,84.26807 -16.6952,127.2165 z M 534.0768,968.96508 403.86456,1220.4561 297.11937,1113.0337 Z m -327.96015,66.68232 74.94517,75.4274 -92.20469,56.0589 z m 82.20806,82.7347 100.97004,101.6191 -193.70238,-45.2374 z"
         id="path4640-5" />
      <path
         style="color:#000000;font-style:normal;font-variant:normal;font-weight:normal;font-stretch:normal;font-size:medium;line-height:normal;font-family:sans-serif;font-variant-ligatures:normal;font-variant-position:normal;font-variant-caps:normal;font-variant-numeric:normal;font-variant-alternates:normal;font-feature-settings:normal;text-indent:0;text-align:start;text-decoration:none;text-decoration-line:none;text-decoration-style:solid;text-decoration-color:#000000;letter-spacing:normal;word-spacing:normal;text-transform:none;writing-mode:lr-tb;direction:ltr;text-orientation:mixed;dominant-baseline:auto;baseline-shift:baseline;text-anchor:start;white-space:normal;shape-padding:0;clip-rule:nonzero;display:inline;overflow:visible;visibility:visible;opacity:1;isolation:auto;mix-blend-mode:normal;color-interpolation:sRGB;color-interpolation-filters:linearRGB;solid-color:#000000;solid-opacity:1;vector-effect:none;fill:#162d50;fill-opacity:1;fill-rule:evenodd;stroke:#162d50;stroke-width:5.29166651;stroke-linecap:butt;stroke-linejoin:round;stroke-miterlimit:4;stroke-dasharray:none;stroke-dashoffset:0;stroke-opacity:1;paint-order:fill markers stroke;color-rendering:auto;image-rendering:auto;shape-rendering:auto;text-rendering:auto;enable-background:accumulate"
         d="m 1260.4716,151.5696 a 5.0036841,5.0089463 0 0 0 -1.2168,0.13913 l -272.64915,66.8509 a 5.0036841,5.0089463 0 0 0 -0.46943,0.14623 5.0036841,5.0089463 0 0 0 -0.0567,0.0284 5.0036841,5.0089463 0 0 0 -0.41837,0.16185 5.0036841,5.0089463 0 0 0 -0.0284,0.0284 5.0036841,5.0089463 0 0 0 -0.41838,0.22005 5.0036841,5.0089463 0 0 0 -0.0284,0.0284 5.0036841,5.0089463 0 0 0 -0.41838,0.27826 L 623.09465,492.88597 a 5.0036841,5.0089463 0 0 0 0.14608,8.08486 l -0.007,0.007 0.0851,0.0568 295.63984,207.22201 -294.80436,138.11871 a 5.0036841,5.0089463 0 0 0 -2.89488,5.91326 5.0036841,5.0089463 0 0 0 0.007,0.0142 5.0036841,5.0089463 0 0 0 0.35881,0.92423 5.0036841,5.0089463 0 0 0 0,0.007 5.0036841,5.0089463 0 0 0 0.0284,0.0568 5.0036841,5.0089463 0 0 0 0.4907,0.77801 5.0036841,5.0089463 0 0 0 0.0142,0.0142 5.0036841,5.0089463 0 0 0 0.33044,0.3819 5.0036841,5.0089463 0 0 0 0.0567,0.0568 L 851.66861,1086.696 628.6948,951.13052 l -2.60173,4.30657 -4.44132,2.29639 141.57931,273.43472 a 5.0036841,5.0089463 0 0 0 5.59192,2.5751 l 222.59287,-51.987 a 5.0036841,5.0089463 0 0 0 3.65703,-3.3822 L 1075.097,925.78999 a 5.0036841,5.0089463 0 0 0 -0.5787,-4.26994 L 938.267,714.21741 l 187.0551,2.08357 a 5.0036841,5.0089463 0 0 0 4.925,-3.93971 l 57.2313,-263.64766 89.1118,-95.55177 a 5.0036841,5.0089463 0 0 0 1.3558,-3.74166 l -12.5178,-193.16504 a 5.0036841,5.0089463 0 0 0 -4.9617,-4.68808 z m -7.0576,11.87793 -41.1884,153.91431 -209.005,-92.55844 z m 4.0089,23.73387 9.9966,154.62597 -45.9302,-20.3444 z m -272.45133,44.66508 62.51553,221.7484 -404.35647,36.71232 z m 21.53233,5.34835 203.098,89.96859 -29.1176,108.80908 z m -7.8785,6.24349 174.0389,198.78491 -115.0341,10.45466 z m 220.2402,87.82638 45.6077,20.20484 -71.5447,76.72618 z m -42.2949,120.63547 -51.8519,238.71799 -64.3183,-228.15331 z M 1045.4863,463.81485 927.02941,701.68173 640.19164,500.62982 Z m 7.1603,8.04085 66.0845,234.35266 -181.77822,-2.01756 z m -127.80849,244.68266 23.96546,182.60766 -305.9295,-50.47575 z m 11.87282,13.57263 123.16917,187.36187 -100.76476,-16.62474 z m -279.14986,131.1489 292.6057,48.25276 13.99816,106.64455 z m -6.442,7.98221 310.83996,157.0103 -78.19925,78.707 z m 309.35209,41.97265 99.48964,16.40455 -85.98246,86.5351 z m 98.88134,31.19516 -67.02998,211.49919 -16.69521,-127.2311 z m -420.60461,26.55111 236.97212,144.09058 -106.75252,107.4371 z m 327.96758,66.68228 17.25952,131.4937 -92.20479,-56.0589 z m -82.21551,82.7421 92.73236,56.3816 -193.70972,45.2522 z"
         id="path4642-3"
         inkscape:connector-curvature="0" />
      <path
         inkscape:connector-curvature="0"
         style="color:#000000;font-style:normal;font-variant:normal;font-weight:normal;font-stretch:normal;font-size:medium;line-height:normal;font-family:sans-serif;font-variant-ligatures:normal;font-variant-position:normal;font-variant-caps:normal;font-variant-numeric:normal;font-variant-alternates:normal;font-feature-settings:normal;text-indent:0;text-align:start;text-decoration:none;text-decoration-line:none;text-decoration-style:solid;text-decoration-color:#000000;letter-spacing:normal;word-spacing:normal;text-transform:none;writing-mode:lr-tb;direction:ltr;text-orientation:mixed;dominant-baseline:auto;baseline-shift:baseline;text-anchor:start;white-space:normal;shape-padding:0;clip-rule:nonzero;display:inline;overflow:visible;visibility:visible;opacity:1;isolation:auto;mix-blend-mode:normal;color-interpolation:sRGB;color-interpolation-filters:linearRGB;solid-color:#000000;solid-opacity:1;vector-effect:none;fill:#000000;fill-opacity:1;fill-rule:evenodd;stroke:#000000;stroke-width:5.29166651;stroke-linecap:butt;stroke-linejoin:round;stroke-miterlimit:4;stroke-dasharray:none;stroke-dashoffset:0;stroke-opacity:1;paint-order:fill markers stroke;color-rendering:auto;image-rendering:auto;shape-rendering:auto;text-rendering:auto;enable-background:accumulate"
         d="m 552.47232,336.71246 a 5.003684,5.0089463 0 0 0 -2.57977,0.88773 l -24.90354,17.05023 a 5.003684,5.0089463 0 0 0 -1.79559,6.07471 l 37.31865,89.78517 -17.59663,20.54977 a 5.003684,5.0089463 0 0 0 -1.19461,3.27215 v 481.09687 a 5.003684,5.0089463 0 0 0 0.77686,2.68518 l 39.22419,61.08443 a 5.003684,5.0089463 0 0 0 8.3989,-0.015 l 0.0225,0.015 39.19485,-61.08443 a 5.003684,5.0089463 0 0 0 0.79885,-2.68518 V 474.33222 a 5.003684,5.0089463 0 0 0 -1.2166,-3.27215 l -17.58932,-20.57178 37.31135,-89.76316 a 5.003684,5.0089463 0 0 0 -1.77357,-6.07471 L 621.9433,337.60019 a 5.003684,5.0089463 0 0 0 -2.82896,-0.88773 5.003684,5.0089463 0 0 0 -4.95431,4.4093 L 601.09996,446.40913 H 585.92917 570.73639 L 557.70566,341.12176 a 5.003684,5.0089463 0 0 0 -5.23281,-4.4093 z m -3.68646,13.77812 8.06178,65.05354 -22.85144,-54.92906 z m 74.29289,0 14.76039,10.12448 -22.82217,54.92906 z m -54.46092,105.92569 h 6.67663 l -23.57704,27.07201 v -7.29991 z m 28.91245,0 h 5.68719 l 16.92241,19.7721 v 6.19205 z m -6.61066,7.65939 28.98573,33.28611 -28.98573,130.8774 z m -10.00394,1.13715 V 628.13648 L 552.14984,498.24947 Z m -29.19826,77.39371 29.081,131.32493 -29.081,131.33233 z m 68.42246,0 V 805.26378 L 591.05887,673.93145 Z m -29.22026,177.02456 29.22026,131.94856 v 92.48507 L 590.91962,917.3375 Z m -10.00394,0.10255 v 197.62573 l -29.19826,26.7052 v -92.48507 z m 10.00394,211.16908 27.72516,25.37726 -27.72516,43.18316 z m -10.00394,0.0225 v 68.50908 L 553.2052,956.26581 Z"
         id="path4644-5" />
      <text
         id="text4611"
         y="846.30823"
         x="1463.5155"
         style="font-style:normal;font-weight:normal;font-size:41.2441597px;line-height:25.77760124px;font-family:sans-serif;letter-spacing:0px;word-spacing:0px;fill:#000000;fill-opacity:1;stroke:none;stroke-width:1.05833459px;stroke-linecap:butt;stroke-linejoin:miter;stroke-opacity:1"
         xml:space="preserve"><tspan
           style="font-style:normal;font-variant:normal;font-weight:normal;font-stretch:normal;font-size:549.92218018px;font-family:Roboto;-inkscape-font-specification:Roboto;stroke-width:1.05833459px"
           y="846.30823"
           x="1463.5155"
           id="tspan4609"
           sodipodi:role="line"><tspan
             id="tspan4617"
             style="font-style:normal;font-variant:normal;font-weight:300;font-stretch:normal;font-size:549.92218018px;font-family:Roboto;-inkscape-font-specification:'Roboto weight=250';font-variant-ligatures:normal;font-variant-caps:normal;font-variant-numeric:normal;font-feature-settings:normal;text-align:start;writing-mode:lr-tb;text-anchor:start;stroke-width:1.05833459px">Soft</tspan><tspan
             id="tspan4619"
             style="font-style:normal;font-variant:normal;font-weight:500;font-stretch:normal;font-size:549.92218018px;font-family:Roboto;-inkscape-font-specification:'Roboto Medium';font-variant-ligatures:normal;font-variant-caps:normal;font-variant-numeric:normal;font-feature-settings:normal;text-align:start;writing-mode:lr-tb;text-anchor:start;stroke-width:1.05833459px">Butterfly</tspan></tspan></text>
    </g>
  </g>
</svg>
